<svg width="0" height="0" class="hidden">
  <symbol fill="none" xmlns="http://www.w3.org/2000/svg" viewBox="0 0 20 20" id="cart">
    <path
      d="M7.54548 18.1818C7.99735 18.1818 8.36366 17.8155 8.36366 17.3636C8.36366 16.9118 7.99735 16.5455 7.54548 16.5455C7.09361 16.5455 6.72729 16.9118 6.72729 17.3636C6.72729 17.8155 7.09361 18.1818 7.54548 18.1818Z"
      stroke="#9B9B9B" stroke-width="2" stroke-linecap="round" stroke-linejoin="round"></path>
    <path
      d="M16.5455 18.1818C16.9973 18.1818 17.3637 17.8155 17.3637 17.3636C17.3637 16.9118 16.9973 16.5455 16.5455 16.5455C16.0936 16.5455 15.7273 16.9118 15.7273 17.3636C15.7273 17.8155 16.0936 18.1818 16.5455 18.1818Z"
      stroke="#9B9B9B" stroke-width="2" stroke-linecap="round" stroke-linejoin="round"></path>
    <path
      d="M1 1H4.27273L6.46545 11.9555C6.54027 12.3321 6.7452 12.6705 7.04436 12.9113C7.34351 13.1522 7.71784 13.2801 8.10182 13.2727H16.0545C16.4385 13.2801 16.8129 13.1522 17.112 12.9113C17.4112 12.6705 17.6161 12.3321 17.6909 11.9555L19 5.09091H5.09091"
      stroke="#9B9B9B" stroke-width="2" stroke-linecap="round" stroke-linejoin="round"></path>
  </symbol>
  <symbol fill="none" xmlns="http://www.w3.org/2000/svg" viewBox="0 -2 14 13" id="favorite">
    <path
      d="M13.58 2.22C13.36 1.7 13.03 1.24 12.63 0.85C12.23 0.46 11.75 0.14 11.23 -0.07C10.69 -0.29 10.11 -0.41 9.52 -0.41C8.7 -0.41 7.9 -0.18 7.2 0.24C7.04 0.34 6.88 0.45 6.73 0.57C6.58 0.45 6.42 0.34 6.25 0.24C5.56 -0.18 4.76 -0.41 3.93 -0.41C3.34 -0.41 2.77 -0.29 2.23 -0.07C1.7 0.15 1.23 0.46 0.83 0.85C0.42 1.24 0.1 1.7 -0.12 2.22C-0.35 2.75 -0.47 3.32 -0.47 3.9C-0.47 4.45 -0.36 5.03 -0.13 5.61C0.06 6.1 0.33 6.61 0.67 7.12C1.22 7.93 1.97 8.77 2.9 9.62C4.45 11.04 5.98 12.02 6.05 12.06L6.44 12.31C6.62 12.42 6.84 12.42 7.02 12.31L7.41 12.06C7.48 12.02 9.01 11.04 10.55 9.62C11.49 8.77 12.24 7.93 12.79 7.12C13.13 6.61 13.4 6.1 13.59 5.61C13.82 5.03 13.93 4.45 13.93 3.9C13.93 3.32 13.81 2.75 13.58 2.22Z"
      fill="currentColor" fill-opacity="1.000000" fill-rule="nonzero" />
  </symbol>
  <symbol fill="none" xmlns="http://www.w3.org/2000/svg" viewBox="0 -2 14 13" id="favoriteActive">
    <path
      d="M13.58 2.22C13.36 1.7 13.03 1.24 12.63 0.85C12.23 0.46 11.75 0.14 11.23 -0.07C10.69 -0.29 10.11 -0.41 9.52 -0.41C8.7 -0.41 7.9 -0.18 7.2 0.24C7.04 0.34 6.88 0.45 6.73 0.57C6.58 0.45 6.42 0.34 6.25 0.24C5.56 -0.18 4.76 -0.41 3.93 -0.41C3.34 -0.41 2.77 -0.29 2.23 -0.07C1.7 0.15 1.23 0.46 0.83 0.85C0.42 1.24 0.1 1.7 -0.12 2.22C-0.35 2.75 -0.47 3.32 -0.47 3.9C-0.47 4.45 -0.36 5.03 -0.13 5.61C0.06 6.1 0.33 6.61 0.67 7.12C1.22 7.93 1.97 8.77 2.9 9.62C4.45 11.04 5.98 12.02 6.05 12.06L6.44 12.31C6.62 12.42 6.84 12.42 7.02 12.31L7.41 12.06C7.48 12.02 9.01 11.04 10.55 9.62C11.49 8.77 12.24 7.93 12.79 7.12C13.13 6.61 13.4 6.1 13.59 5.61C13.82 5.03 13.93 4.45 13.93 3.9C13.93 3.32 13.81 2.75 13.58 2.22Z"
      fill="#e05e73" fill-opacity="1.000000" fill-rule="nonzero" />
  </symbol>
  <symbol id="favorite-nav" width="19.000000" height="17.000000" viewBox="0 0 19 17" fill="none"
    xmlns="http://www.w3.org/2000/svg" xmlns:xlink="http://www.w3.org/1999/xlink">
    <clipPath id="clip60_590">
      <rect width="18.110001" height="16.299000" fill="white" fill-opacity="0" />
    </clipPath>
    <rect width="18.110001" height="16.299000" fill="#FFFFFF" fill-opacity="0" />
    <g clip-path="url(#clip60_590)">
      <path
        d="M12.95 0C14.35 0 15.52 0.47 16.47 1.41C17.42 2.35 17.9 3.5 17.9 4.86C17.9 5.53 17.76 6.2 17.48 6.88C17.2 7.56 16.89 8.16 16.55 8.69C16.22 9.21 15.65 9.89 14.86 10.72C14.06 11.55 13.39 12.23 12.84 12.74C12.3 13.25 11.43 14.03 10.22 15.09L8.92 16.25L7.62 15.13C6.45 14.05 5.58 13.25 5.03 12.74C4.47 12.23 3.79 11.55 2.99 10.72C2.2 9.89 1.63 9.21 1.29 8.69C0.96 8.16 0.66 7.56 0.39 6.88C0.13 6.2 0 5.53 0 4.86C0 3.5 0.47 2.35 1.42 1.41C2.37 0.47 3.53 0 4.9 0C6.52 0 7.86 0.62 8.92 1.87C9.99 0.62 11.33 0 12.95 0ZM9.01 13.8C10.38 12.58 11.38 11.67 12.01 11.08C12.63 10.48 13.33 9.77 14.08 8.93C14.84 8.1 15.36 7.38 15.65 6.75C15.95 6.13 16.09 5.5 16.09 4.86C16.09 3.97 15.79 3.24 15.19 2.66C14.59 2.07 13.84 1.78 12.95 1.78C12.28 1.78 11.64 1.98 11.04 2.37C10.44 2.75 10.01 3.25 9.76 3.86L8.09 3.86C7.86 3.25 7.45 2.75 6.85 2.37C6.25 1.98 5.6 1.78 4.9 1.78C4.01 1.78 3.26 2.07 2.68 2.66C2.09 3.24 1.8 3.97 1.8 4.86C1.8 5.5 1.94 6.13 2.22 6.75C2.5 7.38 3.02 8.1 3.79 8.93C4.56 9.77 5.26 10.48 5.88 11.08C6.51 11.67 7.5 12.58 8.84 13.8L8.92 13.88L9.01 13.8Z"
        fill="#9B9B9B" fill-opacity="1.000000" fill-rule="nonzero" />
    </g>
  </symbol>
  <symbol fill="none" xmlns="http://www.w3.org/2000/svg" viewBox="0 0 20 20" id="profile">
    <path fill-rule="evenodd" clip-rule="evenodd"
      d="M0 10C0 4.579 4.579 0 10 0C15.421 0 20 4.579 20 10C20 13.19 18.408 16.078 16 17.924V18H15.898C14.23 19.245 12.187 20 10 20C7.813 20 5.77 19.245 4.102 18H4V17.924C1.592 16.078 0 13.189 0 10ZM7.12347 15.236C6.59154 15.6639 6.22136 16.2604 6.074 16.927C7.242 17.604 8.584 18 10 18C11.416 18 12.758 17.604 13.926 16.927C13.7785 16.2605 13.4082 15.6641 12.8764 15.2362C12.3445 14.8083 11.6827 14.5744 11 14.573H9C8.3173 14.5742 7.6554 14.808 7.12347 15.236ZM13.7677 13.4117C14.5877 13.9574 15.2286 14.7329 15.61 15.641C17.077 14.182 18 12.176 18 10C18 5.663 14.337 2 10 2C5.663 2 2 5.663 2 10C2 12.176 2.923 14.182 4.39 15.641C4.77144 14.7329 5.41227 13.9574 6.23227 13.4117C7.05227 12.866 8.01501 12.5742 9 12.573H11C11.985 12.5742 12.9477 12.866 13.7677 13.4117ZM6 8C6 5.72 7.72 4 10 4C12.28 4 14 5.72 14 8C14 10.28 12.28 12 10 12C7.72 12 6 10.28 6 8ZM8 8C8 9.178 8.822 10 10 10C11.178 10 12 9.178 12 8C12 6.822 11.178 6 10 6C8.822 6 8 6.822 8 8Z"
      fill="#9B9B9B"></path>
  </symbol>
  <symbol version="1.1" id="cardChecked" xmlns="http://www.w3.org/2000/svg" xmlns:xlink="http://www.w3.org/1999/xlink"
    xml:space="preserve" fill="#9CDD05" viewBox="0 0 512 512">
    <g id="SVGRepo_bgCarrier" stroke-width="0"></g>
    <g id="SVGRepo_tracerCarrier" stroke-linecap="round" stroke-linejoin="round"></g>
    <g id="SVGRepo_iconCarrier">
      <path
        d="M488.727,0H256H23.273C10.42,0,0,10.418,0,23.273v465.455C0,501.58,10.42,512,23.273,512H256h232.727 C501.58,512,512,501.58,512,488.727V23.273C512,10.418,501.58,0,488.727,0z">
      </path>
      <path
        d="M201.675,377.665c-4.364,4.364-10.283,6.816-16.455,6.816c-6.173,0-12.093-2.453-16.457-6.816 l-68.856-68.858c-9.089-9.089-9.089-23.824,0-32.912c9.087-9.089,23.824-9.087,32.912,0l52.401,52.401l70.78-70.78V0H23.273 C10.42,0,0,10.418,0,23.273v465.455C0,501.58,10.42,512,23.273,512H256V323.34L201.675,377.665z">
      </path>
      <path fill="#fff"
        d="M412.092,134.333c-9.087-9.089-23.824-9.087-32.912,0L256,257.516l-70.78,70.782l-52.401-52.401 c-9.087-9.087-23.824-9.089-32.912,0s-9.089,23.823,0,32.912l68.856,68.858c4.364,4.364,10.283,6.816,16.457,6.816 c6.172,0,12.092-2.453,16.455-6.816L256,323.34l156.092-156.093C421.182,158.158,421.182,143.422,412.092,134.333z">
      </path>
    </g>
  </symbol>
  <symbol id="cardUnChecked" viewBox="0 0 32 32" fill="none" xmlns="http://www.w3.org/2000/svg">
    <rect x="0.5" y="0.5" width="31" height="31" rx="7.5" fill="currentColor" stroke="#F2F2F2" />
    <path
      d="M20.6653 15.1312H17.2021V11.6682C17.2021 10.3328 15.1311 10.3328 15.1311 11.6682V15.1312H11.668C10.3329 15.1312 10.3329 17.2022 11.668 17.2022H15.1311V20.6652C15.1311 22.0005 17.2021 22.0005 17.2021 20.6652V17.2022H20.6653C22.0005 17.2022 22.0005 15.1312 20.6653 15.1312Z"
      fill="var(--icon-plus)" />
  </symbol>
  <symbol id="cartIconRemove" viewBox="0 0 32 32" fill="none" xmlns="http://www.w3.org/2000/svg">
    <rect x="0.5" y="0.5" width="31" height="31" rx="7.5" fill="white" stroke="#DBDBDB" />
    <path
      d="M20.0799 18.6155L17.6311 16.1667L20.0798 13.718C21.0241 12.7738 19.5596 11.3093 18.6154 12.2536L16.1667 14.7023L13.7179 12.2535C12.7738 11.3095 11.3095 12.7738 12.2535 13.7179L14.7023 16.1667L12.2536 18.6154C11.3093 19.5596 12.7738 21.0241 13.718 20.0798L16.1667 17.6311L18.6155 20.0799C19.5597 21.0241 21.0241 19.5597 20.0799 18.6155Z"
      fill="#B5B5B5" />
  </symbol>
  <symbol id="search" viewBox="0 0 16 16" fill="none" xmlns="http://www.w3.org/2000/svg" xmlns:xlink="http://www.w3.org/1999/xlink">
    <path
      d="M11.88 11.87L15.25 15.25L11.88 11.87ZM11.88 11.88C10.68 13.07 9.06 13.75 7.37 13.75C5.68 13.75 4.06 13.07 2.86 11.88C1.67 10.68 1 9.06 1 7.37C1 5.68 1.67 4.06 2.86 2.86C4.06 1.67 5.68 1 7.37 1C9.06 1 10.68 1.67 11.88 2.86C13.07 4.06 13.75 5.68 13.75 7.37C13.75 9.06 13.07 10.68 11.88 11.88Z"
      stroke="#E4E4E4" stroke-opacity="1.000000" stroke-width="2.000000" />
  </symbol>
  <symbol id="checkoutBtnArrow" width="31" height="31" viewBox="0 0 32 32" fill="none"
    xmlns="http://www.w3.org/2000/svg">
    <path d="M1 7H14.7143" stroke="white" stroke-width="2" stroke-linecap="round" stroke-linejoin="round" />
    <path d="M8.71436 1L14.7144 7L8.71436 13" stroke="white" stroke-width="2" stroke-linecap="round"
      stroke-linejoin="round" />
  </symbol>
</svg>